<svg xmlns="http://www.w3.org/2000/svg" viewBox="0 0 773.68 1333.33" shape-rendering="geometricPrecision" text-rendering="geometricPrecision" image-rendering="optimizeQuality" fill-rule="evenodd" clip-rule="evenodd"><path d="M86.41 268.71h600.87v293.13H86.41V268.71zM135.22 0h503.25c37.2 0 71.2 15.2 95.61 39.6 24.4 24.4 39.6 58.41 39.6 95.61v1062.91c0 37.2-15.2 71.21-39.6 95.61-24.41 24.4-58.41 39.6-95.61 39.6H135.22c-37.2 0-71.2-15.2-95.61-39.6-24.4-24.4-39.6-58.41-39.6-95.61V135.21c0-37.2 15.2-71.21 39.6-95.61C64.02 15.2 98.02 0 135.22 0zM86.33 1036.16h254.12v56.24h72.81v-56.33h274.1v56.33h53.93V193.32H32.42v899.08h53.93v-56.24zm0-396.96h254.12v116.67H86.33V639.2zm326.93-.19h274.1v117.04h-274.1V639.01zm-4.01 194.75h274.1V950.8h-274.1V833.76zm-318.91.19h254.11v116.67H90.34V833.95zm223.7 392.17c-8.8 0-16.4-7.2-16.4-16.4 0-8.8 7.2-16.4 16.4-16.4h148.81c8.8 0 16.4 7.2 16.4 16.4 0 8.8-7.2 16.4-16.4 16.4H314.04zM386.85 70.06c14.4 0 26 11.6 26 26s-11.6 26-26 26-26-11.6-26-26c0-14.41 11.6-26 26-26zm354.44 1054.75H32.42v72.91c0 28.4 11.6 54 30.41 72.41 18.8 18.8 44.4 30.41 72.41 30.41h503.25c28.4 0 54-11.61 72.41-30.41 18.8-18.8 30.41-44.41 30.41-72.41v-72.91zM32.42 160.52h708.87v-25.31c0-28.41-11.6-54.01-30.41-72.41-18.8-18.8-44.4-30.4-72.41-30.4H135.22c-28.4 0-54 11.6-72.41 30.4-18.8 18.8-30.41 44.41-30.41 72.41v25.31zm283.42 175.76h54.19v104.58c0 10.34-1.63 20.15-4.86 29.34-3.23 9.24-8.3 17.29-15.2 24.2-6.91 6.91-14.14 11.73-21.7 14.55-10.54 3.88-23.21 5.84-37.96 5.84-8.54 0-17.86-.61-27.96-1.8-10.09-1.19-18.55-3.56-25.33-7.11-6.79-3.56-13-8.58-18.6-15.12-5.64-6.54-9.48-13.28-11.56-20.23-3.35-11.16-5.03-21.05-5.03-29.67V336.28h54.19v107.07c0 9.56 2.66 17.04 7.93 22.4 5.31 5.39 12.67 8.09 22.07 8.09 9.28 0 16.59-2.66 21.91-7.97 5.27-5.27 7.93-12.79 7.93-22.52V336.28zm77.98 0h59.83l31.1 54.03 30.2-54.03h59.09l-54.56 85.05 59.71 90.52h-61.06l-34.45-56.4-34.7 56.4h-60.56l60.52-91.5-55.13-84.07z"/></svg>